<svg width="38" height="39" viewBox="0 0 38 39" fill="none" xmlns="http://www.w3.org/2000/svg">
<path d="M37.3919 17.3514H19.8784V22.5405H32.2838C31.6757 29.8378 25.5946 32.9189 19.8784 32.9189C12.5405 32.9189 6.17568 27.1622 6.17568 19.0946C6.17568 11.2297 12.2568 5.18919 19.8784 5.18919C25.7568 5.18919 29.2432 8.95946 29.2432 8.95946L32.8919 5.18919C32.8919 5.18919 28.2297 0 19.7162 0C8.89189 0 0.5 9.16217 0.5 19.0135C0.5 28.7027 8.4054 38.1487 20 38.1487C30.2162 38.1487 37.6757 31.1351 37.6757 20.7973C37.6757 18.6081 37.3919 17.3514 37.3919 17.3514Z" fill="#4285F4"/>
</svg>
